<svg xmlns="http://www.w3.org/2000/svg" height="97" width="240.333"><path d="M240.333 97H0V0h240.333v97" fill="#1a3d82"/><path d="M53.044 90.786l-42.3-42.295L53.018 6.214 95.32 48.517zm2.534-30.373h5.247l6.51-25.509H62.39l-3.539 16.717c-.165.928-.293 1.81-.374 2.65l-.09.677h-.124c-.08-1.304-.216-2.384-.39-3.235l-3.541-16.809h-5.09zM73.745 39.18h1.638c1.006 0 1.827.34 2.453 1.028.628.676.942 1.707.942 3.084 0 2.796-1.113 4.195-3.346 4.195h-1.687zm0 12.534h2.047c2.428 0 4.385-.817 5.869-2.455 1.48-1.64 2.223-3.712 2.223-6.227 0-2.644-.676-4.658-2.028-6.048-1.34-1.384-3.225-2.079-5.655-2.079h-7.364v25.51h4.908zm-36.112-1.424c-.145.651-.292 1.695-.443 3.131l-.124.942h-.09c-.072-1.056-.283-2.365-.643-3.93l-3.572-15.528h-6.884v25.51h4.071V46.89c0-2.334-.06-4.701-.176-7.095h.141l.691 4.517 3.898 16.1h4.485l3.717-16.33c.352-1.776.604-3.21.762-4.287h.11c-.12 2.575-.18 4.496-.18 5.78v14.837h4.213V34.904h-6.614L37.633 50.29M120.921 36.799v-12.58c0-1.086.05-2.72.15-4.902h-.09c-.13.915-.346 2.126-.648 3.636l-3.153 13.846h-3.8l-3.304-13.651-.589-3.83h-.12c.1 2.03.15 4.037.15 6.017V36.8h-3.453v-21.63h5.837l3.032 13.167c.301 1.328.482 2.44.543 3.334h.076l.105-.8c.13-1.216.257-2.1.377-2.654l2.85-13.047h5.61v21.63h-3.573M127.89 36.799V21.354h3.935v15.445zm1.946-17.572c-.695 0-1.263-.236-1.706-.71a2.406 2.406 0 01-.664-1.704c0-.724.227-1.302.68-1.734.453-.432 1.015-.65 1.69-.65.724 0 1.305.222 1.75.664.443.443.661 1.016.661 1.72s-.218 1.282-.661 1.734c-.445.453-1.026.68-1.75.68M143.472 36.18c-.767.594-1.816.89-3.155.89-1.729 0-3.161-.721-4.298-2.164-1.136-1.443-1.704-3.271-1.704-5.484 0-2.603.597-4.645 1.786-6.123 1.194-1.478 2.754-2.217 4.686-2.217 1.246 0 2.14.216 2.685.649v3.453a2.765 2.765 0 00-2.084-.89c-.915 0-1.64.443-2.177 1.328-.539.885-.807 2.057-.807 3.514 0 1.53.244 2.693.739 3.492.493.8 1.18 1.2 2.065 1.2.865 0 1.62-.287 2.264-.86v3.212M154.028 25.034a3.461 3.461 0 00-1.356-.287c-1.912 0-2.867 1.423-2.867 4.269v7.783h-3.936V21.354h3.936v2.563h.062c.542-1.89 1.602-2.835 3.182-2.835.311 0 .639.05.979.15v3.802M160.667 24.325c-1.479 0-2.219 1.563-2.219 4.69 0 3.208.74 4.813 2.219 4.813 1.466 0 2.2-1.654 2.2-4.963 0-3.026-.734-4.54-2.2-4.54zm-.063 12.745c-1.99 0-3.528-.698-4.615-2.097-1.085-1.397-1.628-3.372-1.628-5.927 0-2.544.558-4.507 1.675-5.89 1.115-1.383 2.659-2.074 4.63-2.074 1.982 0 3.522.684 4.623 2.05 1.102 1.369 1.654 3.27 1.654 5.703 0 2.654-.55 4.69-1.638 6.108-1.092 1.418-2.657 2.127-4.701 2.127M168.948 36.301v-3.424c1.093.764 2.237 1.146 3.421 1.146 1.219 0 1.826-.507 1.826-1.524 0-.4-.162-.74-.482-1.017-.322-.276-.778-.586-1.372-.928-1.437-.824-2.372-1.614-2.808-2.369a4.831 4.831 0 01-.648-2.443c0-1.387.476-2.51 1.427-3.371.95-.86 2.264-1.29 3.945-1.29 1.155 0 2.216.192 3.18.573v3.35c-1.065-.584-2-.876-2.804-.876-1.216 0-1.826.508-1.826 1.524 0 .322.108.618.326.89.216.271.766.654 1.651 1.146 1.339.765 2.221 1.504 2.653 2.218.435.714.651 1.538.651 2.474 0 1.387-.465 2.516-1.395 3.386-.933.87-2.281 1.304-4.053 1.304-1.528 0-2.757-.256-3.692-.769M186.052 24.325c-1.479 0-2.219 1.563-2.219 4.69 0 3.208.74 4.813 2.219 4.813 1.47 0 2.2-1.654 2.2-4.963 0-3.026-.73-4.54-2.2-4.54zm-.06 12.745c-1.992 0-3.53-.698-4.617-2.097-1.086-1.397-1.627-3.372-1.627-5.927 0-2.544.557-4.507 1.673-5.89 1.115-1.383 2.66-2.074 4.631-2.074 1.979 0 3.521.684 4.623 2.05 1.101 1.369 1.65 3.27 1.65 5.703 0 2.654-.544 4.69-1.634 6.108-1.092 1.418-2.66 2.127-4.699 2.127M201.588 17.085c-.323-.121-.705-.182-1.148-.182-1.096 0-1.643.66-1.643 1.977v2.474h2.506v3.212h-2.506v12.233h-3.922V24.566h-1.794v-3.212h1.794V19.03c0-1.679.437-2.994 1.313-3.944.875-.95 2.148-1.425 3.815-1.425.354 0 .658.025.921.075l.664.136v3.213" fill="#fff"/><path d="M210.14 36.588a6.942 6.942 0 01-2.593.482c-2.635 0-3.954-1.573-3.954-4.722v-7.782h-3.134v-3.212h3.134v-3.455l.316-.105c2.274-.755 3.476-1.132 3.607-1.132v4.692h2.624v3.212h-2.624v7.452c0 1.206.476 1.81 1.432 1.81.443 0 .839-.092 1.192-.272v3.032M215.235 19.468v1.338h.637c.243 0 .433-.061.573-.185.14-.125.211-.29.211-.493 0-.44-.296-.66-.893-.66zm1.478 3.887l-.413-1.17c-.161-.459-.387-.689-.67-.689h-.395v1.859h-.904v-4.63h1.512c.58 0 1.024.114 1.328.343.305.23.457.549.457.955 0 .635-.372 1.045-1.116 1.23v.02c.3.075.541.33.725.763l.556 1.319zm-.81-5.424c-.912 0-1.671.304-2.275.913-.601.607-.904 1.356-.904 2.246 0 .905.307 1.658.923 2.258.613.6 1.368.9 2.256.9.877 0 1.626-.303 2.244-.91.616-.607.924-1.356.924-2.248 0-.9-.304-1.651-.914-2.254-.608-.603-1.36-.905-2.254-.905zm-.011 6.827c-1.075 0-1.97-.344-2.69-1.034-.72-.688-1.078-1.564-1.078-2.625 0-1.031.365-1.904 1.093-2.62.73-.715 1.631-1.074 2.704-1.074 1.062 0 1.952.348 2.672 1.042.718.693 1.078 1.567 1.078 2.622 0 1.04-.366 1.912-1.098 2.624-.733.71-1.626 1.065-2.681 1.065M117.372 59.968V49.096c0-.626.023-1.195.068-1.71l.08-1.232h-.08c-.135.898-.297 1.58-.486 2.048l-3.824 11.766h-1.221l-3.87-11.676c-.09-.263-.244-1-.464-2.206h-.09c.09 1.132.136 2.183.136 3.157v10.725h-1.527V43.745h2.195l3.846 11.732c.173.535.32 1.142.441 1.82h.045l.442-1.922 3.755-11.63h2.127v16.223h-1.573M126.04 49.616c-.855 0-1.517.396-1.988 1.189-.471.791-.706 1.923-.706 3.393 0 3.025.897 4.536 2.693 4.536 1.742 0 2.612-1.535 2.612-4.604 0-1.448-.226-2.562-.68-3.343-.453-.78-1.096-1.171-1.932-1.171zm-.069 10.554c-1.388 0-2.458-.524-3.208-1.571-.75-1.048-1.127-2.492-1.127-4.333 0-1.924.393-3.419 1.178-4.485.785-1.067 1.866-1.602 3.246-1.602 1.357 0 2.42.523 3.185 1.567.765 1.046 1.148 2.475 1.148 4.295 0 1.93-.377 3.434-1.138 4.514-.755 1.076-1.851 1.615-3.284 1.615M132.227 59.571v-1.64c.851.573 1.692.86 2.521.86 1.367 0 2.05-.604 2.05-1.81 0-.385-.134-.735-.397-1.052-.265-.315-.765-.687-1.505-1.109-1.125-.626-1.847-1.2-2.167-1.72a3.198 3.198 0 01-.482-1.708c0-.943.336-1.713 1.003-2.312.667-.6 1.534-.9 2.597-.9.844 0 1.59.155 2.238.463v1.573c-.762-.437-1.492-.656-2.194-.656-.602 0-1.079.163-1.424.486-.347.325-.522.75-.522 1.279 0 .361.115.702.339 1.024.227.32.763.721 1.607 1.204 1.101.619 1.809 1.183 2.122 1.692.312.508.468 1.08.468 1.713 0 .928-.328 1.696-.984 2.302-.656.607-1.565.91-2.726.91-.971 0-1.82-.2-2.544-.599M145.065 59.878a3.81 3.81 0 01-1.502.292c-1.683 0-2.524-.995-2.524-2.986v-7.41h-1.586v-1.391h1.586v-2.874l1.641-.531v3.405h2.385v1.392h-2.385v7.251c0 1.14.44 1.708 1.323 1.708a2.3 2.3 0 001.062-.248v1.392M156.516 59.968h-1.721l-4.492-16.223h1.856l3.224 12.241c.136.505.234 1.066.294 1.684h.044c.016-.18.134-.757.352-1.731l3.359-12.194h1.79l-4.706 16.223M167.737 53.87l-2.273.51c-1.284.285-1.925 1.05-1.925 2.295 0 .641.166 1.15.497 1.527.333.378.764.566 1.29.566.74 0 1.325-.298 1.76-.893.433-.595.651-1.373.651-2.33zm0 6.098v-1.743h-.046c-.59 1.298-1.568 1.945-2.94 1.945-.852 0-1.543-.303-2.066-.91-.524-.606-.786-1.382-.786-2.324 0-1.999 1.033-3.235 3.101-3.711l2.737-.622v-.77c0-1.5-.664-2.251-1.992-2.251-.942 0-1.922.404-2.94 1.21V49.13c1.07-.634 2.127-.95 3.167-.95 2.27 0 3.405 1.255 3.405 3.767v8.02h-1.64M172.205 59.968v-17.15h1.642v17.15h-1.642M182.852 59.968v-1.743h-.047c-.625 1.298-1.61 1.945-2.953 1.945-2.112 0-3.167-1.233-3.167-3.699v-8.088h1.64v7.692c0 1.772.699 2.66 2.092 2.66.719 0 1.302-.262 1.755-.787.45-.525.68-1.227.68-2.111v-7.454h1.637v11.585h-1.637M192.581 53.87l-2.276.51c-1.281.285-1.922 1.05-1.922 2.295 0 .641.166 1.15.497 1.527.33.378.76.566 1.29.566.74 0 1.325-.298 1.76-.893.431-.595.651-1.373.651-2.33zm0 6.098v-1.743h-.048c-.588 1.298-1.569 1.945-2.942 1.945-.851 0-1.539-.303-2.063-.91-.525-.606-.785-1.382-.785-2.324 0-1.999 1.03-3.235 3.098-3.711l2.74-.622v-.77c0-1.5-.664-2.251-1.993-2.251-.943 0-1.924.404-2.943 1.21V49.13c1.074-.634 2.128-.95 3.17-.95 2.269 0 3.404 1.255 3.404 3.767v8.02h-1.638M198.667 53.508v1.617c0 1.056.208 1.922.633 2.596.421.676 1.005 1.013 1.752 1.013 1.765 0 2.645-1.652 2.645-4.954 0-1.35-.21-2.382-.632-3.094-.422-.713-1.013-1.07-1.776-1.07-.82 0-1.464.365-1.928 1.092-.465.728-.694 1.662-.694 2.8zm.078 4.978h-.057v1.482h-1.641v-17.15h1.641v7.466h.057c.61-1.404 1.627-2.105 3.055-2.105 1.153 0 2.041.486 2.67 1.46.623.973.937 2.3.937 3.982 0 2.066-.35 3.676-1.052 4.826-.702 1.148-1.707 1.723-3.019 1.723-1.185 0-2.05-.56-2.59-1.684M207.75 59.968v-17.15h1.64v17.15h-1.64M218.18 53.247c0-2.472-.732-3.71-2.196-3.71-.732 0-1.325.314-1.781.94-.455.626-.714 1.549-.776 2.77zm-4.773 1.324c0 2.798 1.012 4.197 3.041 4.197.875 0 1.77-.31 2.683-.928v1.55c-.907.521-1.871.78-2.896.78-1.472 0-2.592-.511-3.36-1.537-.771-1.026-1.154-2.534-1.154-4.525 0-1.75.388-3.176 1.164-4.276.776-1.101 1.834-1.653 3.167-1.653 2.505 0 3.755 1.761 3.755 5.284v1.108h-6.4M107.825 68.452v7.014h1.539c.987 0 1.743-.326 2.267-.98.525-.651.787-1.528.787-2.63 0-2.27-.965-3.404-2.896-3.404zm0 8.564v6.12h-1.731V66.914h3.71c1.41 0 2.5.411 3.27 1.233.77.822 1.154 2.01 1.154 3.564 0 1.522-.423 2.787-1.268 3.796-.844 1.006-2.006 1.509-3.483 1.509h-1.652M121.73 73.17c-.386-.152-.74-.227-1.065-.227-1.675 0-2.511 1.428-2.511 4.288v5.905h-1.64V71.551h1.64v2.038h.055c.393-1.48 1.257-2.218 2.591-2.218.377 0 .687.044.93.136v1.662M126.526 72.785c-.854 0-1.516.395-1.987 1.188-.471.791-.707 1.923-.707 3.393 0 3.024.897 4.537 2.694 4.537 1.74 0 2.612-1.534 2.612-4.605 0-1.447-.227-2.561-.68-3.342-.453-.78-1.096-1.17-1.932-1.17zm-.068 10.555c-1.388 0-2.458-.524-3.208-1.574-.75-1.047-1.126-2.491-1.126-4.332 0-1.924.392-3.418 1.177-4.485.782-1.068 1.866-1.602 3.246-1.602 1.357 0 2.42.524 3.185 1.568.765 1.044 1.148 2.475 1.148 4.293 0 1.932-.38 3.435-1.138 4.513-.758 1.078-1.851 1.62-3.284 1.62M137.555 67.378a2.849 2.849 0 00-.927-.136c-1.073 0-1.607.655-1.607 1.967v2.342h2.32v1.392h-2.32v10.193h-1.641V72.943h-1.664V71.55h1.664v-2.32c0-1.062.273-1.9.82-2.511.548-.61 1.327-.915 2.336-.915.279 0 .617.037 1.019.113v1.46M144.524 76.415c0-2.472-.732-3.71-2.196-3.71-.732 0-1.325.313-1.781.94-.456.624-.716 1.549-.774 2.77zm-4.773 1.325c0 2.797 1.012 4.196 3.041 4.196.875 0 1.768-.308 2.68-.927v1.55c-.904.52-1.87.781-2.893.781-1.472 0-2.592-.513-3.363-1.539-.768-1.025-1.153-2.535-1.153-4.525 0-1.75.388-3.175 1.166-4.276.776-1.102 1.834-1.653 3.167-1.653 2.505 0 3.755 1.762 3.755 5.284v1.109h-6.4M147.815 82.74v-1.641c.852.574 1.693.86 2.521.86 1.367 0 2.05-.604 2.05-1.81 0-.385-.134-.735-.397-1.053-.265-.316-.765-.685-1.505-1.108-1.124-.626-1.845-1.199-2.167-1.719a3.205 3.205 0 01-.481-1.71c0-.94.336-1.713 1.003-2.312.666-.6 1.533-.9 2.596-.9.844 0 1.592.156 2.24.466v1.571c-.76-.437-1.492-.656-2.196-.656-.602 0-1.078.163-1.424.486-.347.323-.522.75-.522 1.278 0 .363.115.705.342 1.025.224.32.761.721 1.604 1.204 1.102.62 1.81 1.183 2.122 1.693.314.508.47 1.08.47 1.714 0 .925-.328 1.693-.986 2.3-.656.608-1.564.912-2.725.912-.972 0-1.821-.2-2.545-.6M155.836 82.74v-1.641c.852.574 1.692.86 2.524.86 1.364 0 2.047-.604 2.047-1.81 0-.385-.134-.735-.396-1.053-.263-.316-.766-.685-1.506-1.108-1.122-.626-1.846-1.199-2.166-1.719a3.203 3.203 0 01-.479-1.71c0-.94.333-1.713 1-2.312.667-.6 1.533-.9 2.596-.9.844 0 1.59.156 2.239.466v1.571c-.76-.437-1.492-.656-2.195-.656-.601 0-1.079.163-1.424.486-.347.323-.521.75-.521 1.278 0 .363.114.705.341 1.025.224.32.76.721 1.604 1.204 1.101.62 1.81 1.183 2.123 1.693.312.508.468 1.08.468 1.714 0 .925-.328 1.693-.984 2.3-.656.608-1.566.912-2.727.912-.973 0-1.82-.2-2.544-.6M164.344 83.136V71.551h1.637v11.585zm.836-14.085a1.13 1.13 0 01-.825-.332 1.12 1.12 0 01-.339-.833c0-.338.115-.613.344-.82a1.18 1.18 0 01.82-.312c.323 0 .596.104.82.312.221.207.333.482.333.82 0 .332-.106.61-.322.833-.214.223-.492.332-.831.332M172.713 72.785c-.852 0-1.513.395-1.984 1.188-.472.791-.708 1.923-.708 3.393 0 3.024.898 4.537 2.692 4.537 1.743 0 2.615-1.534 2.615-4.605 0-1.447-.227-2.561-.68-3.342-.453-.78-1.096-1.17-1.935-1.17zm-.068 10.555c-1.388 0-2.454-.524-3.205-1.574-.75-1.047-1.128-2.491-1.128-4.332 0-1.924.393-3.418 1.177-4.485.784-1.068 1.868-1.602 3.248-1.602 1.356 0 2.419.524 3.184 1.568.767 1.044 1.15 2.475 1.15 4.293 0 1.932-.38 3.435-1.139 4.513-.757 1.078-1.85 1.62-3.287 1.62M185.53 83.136v-7.693c0-1.773-.697-2.658-2.093-2.658-.716 0-1.297.258-1.74.775-.445.517-.669 1.222-.669 2.12v7.456h-1.64V71.551h1.64v1.743h.057c.582-1.298 1.56-1.947 2.942-1.947 2.096 0 3.145 1.235 3.145 3.7v8.09h-1.641M195.17 77.037l-2.274.51c-1.281.288-1.924 1.054-1.924 2.297 0 .642.167 1.15.5 1.528.33.376.76.564 1.288.564.74 0 1.325-.296 1.759-.893.434-.596.65-1.373.65-2.33zm0 6.1v-1.744h-.045c-.589 1.299-1.57 1.947-2.942 1.947-.852 0-1.54-.304-2.063-.911-.527-.608-.787-1.382-.787-2.325 0-1.999 1.031-3.235 3.099-3.71l2.737-.623V75c0-1.5-.664-2.25-1.989-2.25-.943 0-1.925.404-2.943 1.21v-1.663c1.07-.633 2.127-.95 3.167-.95 2.27 0 3.405 1.255 3.405 3.767v8.021h-1.64M199.639 83.136v-17.15h1.64v17.15h-1.64" fill="#fff"/></svg>